<?xml version="1.0" standalone="no"?>
<!DOCTYPE svg PUBLIC "-//W3C//DTD SVG 20010904//EN"
 "http://www.w3.org/TR/2001/REC-SVG-20010904/DTD/svg10.dtd">
<svg version="1.0" xmlns="http://www.w3.org/2000/svg"
 width="232.000000pt" height="217.000000pt" viewBox="0 0 232.000000 217.000000"
 preserveAspectRatio="xMidYMid meet">

<g transform="translate(0.000000,217.000000) scale(0.100000,-0.100000)"
fill="#000000" stroke="none">
<path d="M57 2083 c-6 -6 -10 -143 -4 -143 1 0 29 -4 62 -10 88 -14 131 -36
152 -79 17 -34 18 -83 18 -766 0 -804 3 -770 -62 -807 -17 -11 -62 -25 -100
-32 l-68 -12 -3 -72 -3 -72 486 0 485 0 0 73 0 73 -64 11 c-79 13 -113 30
-140 66 -20 27 -21 42 -24 326 l-3 298 69 61 c38 34 74 62 78 62 5 0 17 -12
27 -25 9 -13 119 -163 244 -332 257 -350 263 -359 263 -394 0 -43 -28 -59
-119 -66 l-81 -6 0 -73 0 -74 500 0 500 0 -1 73 0 72 -62 29 c-102 48 -193
154 -562 655 -184 249 -332 458 -329 463 18 29 450 416 505 454 81 54 173 89
257 99 l63 7 -3 72 -3 71 -450 0 -450 0 -3 -71 -3 -71 73 -8 c165 -16 204 -72
128 -187 -27 -40 -607 -597 -631 -606 -6 -3 -9 125 -7 340 2 275 6 349 17 371
17 33 69 62 126 72 92 15 85 7 85 90 l0 75 -478 0 c-263 0 -482 -3 -485 -7z"/>
</g>
</svg>
